<svg width="70" height="70" xmlns="http://www.w3.org/2000/svg">
  <g stroke="none" stroke-width="1" fill-rule="evenodd">
    <path d="M56,54c0-3.3,2.7-6,6-6c3.3,0,6,2.7,6,6c0,3.3-2.7,6-6,6c-3.3,0-6-2.7-6-6z" fill="#ff9932" />
    <path
      d="M56.1,41.7l-8.7-3.5C46.7,37.9,46.7,37.4,47,36.7c.8-2.1,1.2-4.4,1.2-6.7C48.2,20.2,39.9,11.8,30,11.8S11.8,20.2,11.8,30c0,2.3.6,4.7,1.4,6.8c.2.4,.2.9,0,1.3c-.2.3-.4,0-.7.1L3.6,41.1C3.5,41.2,3.3,41.2,3.2,41.2c-.6,0-1-.3-1.2-.9C.7,36.9,0,33.5,0,30c0-16.5,13.5-30,30-30c16.5,0,30,13.4,30,29.9c0,3.9-.7,7.6-2.1,11.1c-.1.3-.4.6-.8.7c-.2.1-.3.1-.5.1c-.2,0-.3,0-.5-.1z"
      fill="#0fb264" />
    <path
      d="M3.3,43.8C2.8,42.8,2.4,41.7,2,40.7C1.8,40.2,1.8,39.8,1.8,39.6c0-3.3,2.7-5.9,6.1-5.9c2.5,0,4.6,1.5,5.6,3.7c.1.2,.4.8,.6,1.1C17.2,44.4,23.3,48.2,30,48.2c6.6,0,12.6-3.7,15.8-9.4c.3-.6,1.1-2,1.2-2.1C48,34.7,49.9,33.7,52.1,33.7c3.4,0,6.1,2.7,6.1,5.9c0,.4,0,.9-.3,1.5c-.2.5-.4,1-.6,1.5l0,.1c-.1.3-.2.5-.4.8C51.8,53.7,41.5,60,30,60C18.7,60,8.5,53.8,3.3,43.8z"
      fill="#ff9932" />
  </g>
</svg>