<svg xmlns="http://www.w3.org/2000/svg" width="20" height="20" viewBox="0 0 20 20" fill="#fff"><path d="M2.47893 2.42814C4.55517 0.350488 9.6077 2.0356 13.7616 6.1881C17.9155 10.3434 19.6006 15.3945 17.523 17.4722C15.4453 19.5498 10.3942 17.8647 6.23888 13.7108C2.08499 9.55692 0.401277 4.50439 2.47893 2.42814ZM12.7704 7.18066C9.0932 3.50341 4.81313 2.07625 3.47009 3.4193C2.12704 4.76234 3.5542 9.04241 7.23144 12.7197C10.9087 16.3969 15.1888 17.8227 16.5318 16.481C17.8748 15.138 16.4477 10.8579 12.7704 7.18066Z"></path><path d="M6.23863 6.18835C10.3939 2.03445 15.4451 0.35074 17.5227 2.42839C19.6004 4.50464 17.9152 9.55717 13.7614 13.7111C9.60745 17.865 4.55492 19.5501 2.47867 17.4724C0.401025 15.3948 2.08614 10.3422 6.23863 6.18835ZM16.5316 3.41955C15.1885 2.07651 10.9084 3.50366 7.23119 7.18091C3.55395 10.8582 2.12679 15.1368 3.46983 16.4813C4.81288 17.8243 9.09295 16.3971 12.7702 12.7199C16.4474 9.04266 17.8732 4.76259 16.5316 3.41955Z"></path><path d="M8.48047 9.94937C8.48047 10.3524 8.64058 10.739 8.92557 11.024C9.21057 11.3089 9.59711 11.4691 10.0002 11.4691C10.4032 11.4691 10.7897 11.3089 11.0747 11.024C11.3597 10.739 11.5198 10.3524 11.5198 9.94937C11.5198 9.54633 11.3597 9.15979 11.0747 8.87479C10.7897 8.5898 10.4032 8.42969 10.0002 8.42969C9.59711 8.42969 9.21057 8.5898 8.92557 8.87479C8.64058 9.15979 8.48047 9.54633 8.48047 9.94937Z"></path></svg>