<svg t="1697778890166" class="icon" viewBox="0 0 1024 1024" version="1.1" xmlns="http://www.w3.org/2000/svg" p-id="1341" width="200" height="200"><path d="M512 30.117647a481.882353 481.882353 0 1 0 0.060235 963.824941A481.882353 481.882353 0 0 0 512 30.117647z m179.621647 681.502118c-43.670588 40.237176-103.243294 63.909647-174.320941 63.909647A263.348706 263.348706 0 0 1 253.831529 512a263.529412 263.529412 0 0 1 263.408942-263.649882 253.590588 253.590588 0 0 1 176.308705 68.668235L618.074353 392.613647a142.215529 142.215529 0 0 0-100.713412-39.393882c-68.608 0-126.674824 46.381176-147.456 108.66447a158.479059 158.479059 0 0 0-8.252235 50.115765c0 17.468235 3.011765 34.334118 8.252235 50.115765 20.781176 62.283294 78.848 108.664471 147.395765 108.66447 35.478588 0 65.596235-9.396706 89.148235-25.178353 27.949176-18.672941 46.441412-46.561882 52.585412-79.631058H517.240471V464.052706h248.169411c3.132235 17.287529 4.758588 35.237647 4.758589 53.850353 0 80.353882-28.732235 147.817412-78.546824 193.716706z" fill="#009cfa" p-id="1342"></path></svg>