<svg t="1698905393914" class="icon" viewBox="0 0 1024 1024" version="1.1" xmlns="http://www.w3.org/2000/svg" p-id="2344" width="200" height="200"><path d="M874.019222 149.962778C777.3183 53.257856 648.746062 0 511.989 0c-96.504927 0-188.930941 26.52543-268.961221 76.119365l35.398239 43.686061C348.319517 78.012324 428.439795 55.702803 511.989 55.702803c121.878382 0 236.46192 47.46498 322.641068 133.647129 86.182148 86.184148 133.643129 200.770687 133.643129 322.653068 0 121.879381-47.46198 236.46392-133.642129 322.645068C748.45092 920.832216 633.866382 968.295197 511.989 968.295197s-236.46092-47.46298-322.641068-133.645129C103.165784 748.46792 55.703803 633.883381 55.703803 512.004c0-106.915703 36.525215-208.216527 103.667773-289.657777l-38.792167-40.453131C42.530086 274.129111 0 389.796625 0 512.004c0 136.757062 53.256856 265.3303 149.957778 362.034222C246.661701 970.741144 375.231938 1023.998 511.989 1023.998s265.3283-53.256856 362.030222-149.959778C970.722145 777.334299 1023.978 648.761062 1023.978 512.004c0-136.761062-53.255856-265.336299-149.958778-362.041222z" p-id="2345" fill="#0084ff"></path><path d="M537.58745 169.295363C625.959552 265.380298 726.957382 341.127671 841.981911 395.834496l-36.474217 64.524613c-114.320544-58.914734-211.809449-136.065077-292.466716-231.449027C438.694575 318.685153 339.8027 395.833496 217.765321 461.060094L181.99609 396.536481c122.739363-60.317704 225.138163-136.065077 306.496415-227.241118h49.094945z m28.755382 188.665946v150.092776h185.863007v63.825629H566.342832v154.299684h236.360922v64.524614H214.960382v-64.524614h100.99683V458.95714h65.927583v267.222258h117.830469V357.961309h66.627568z" p-id="2346" fill="#0084ff"></path></svg>