<svg t="1697702450083" class="icon" viewBox="0 0 1077 1024" version="1.1" xmlns="http://www.w3.org/2000/svg" p-id="3354" width="200" height="200"><path d="" fill="#FFFFFF" p-id="3355"></path><path d="" fill="#DDDDDD" p-id="3356"></path><path d="M1024.431158 788.641684L0 842.213053V235.681684l1024.431158-53.463579v606.423579z" fill="#FF373C" p-id="3357"></path><path d="M279.174737 406.851368V344.926316l-140.126316-12.719158v61.978947l140.126316 12.665263z m-140.126316 30.234948v61.978947l140.126316 12.719158v-61.978947l-140.126316-12.773053z m359.046737 161.738105l-395.587369 20.641684v-55.511579l395.587369-20.695579v55.565474z m423.450947-22.150737l-395.587368 20.58779v-55.511579l395.587368-20.695579v55.565473z m-21.989052-228.675368l-287.797895 15.036631v-55.511579l287.797895-15.090526v55.565474z" fill="#FFFFFF" p-id="3358"></path><path d="M388.581053 305.259789l-63.056842 3.233685c-1.562947 125.305263-3.341474 195.907368-26.354527 246.406737-22.959158 50.499368-71.787789 93.615158-169.229473 178.176-4.096 3.449263-8.192 7.114105-12.503579 10.778947l99.166315-5.12c162.169263-142.713263 168.474947-173.702737 171.978106-433.475369z m48.289684 324.446316l-75.991579 3.934316 61.062737 94.423579 76.045473-4.042105-61.116631-94.31579z m424.097684-22.150737l-76.099368 3.988211 61.116631 94.315789 75.991579-3.98821-61.008842-94.31579z m-197.685895 10.34779l-76.045473 4.042105-61.116632 100.621474 75.991579-3.934316 61.170526-100.783158z m92.16 92.752842l-64.458105 3.341474v-212.345263l64.458105-3.449264v212.453053z m86.177685-415.528421V334.147368c-36.702316 31.420632-110.807579 84.830316-315.715369 129.940211v59.392c248.885895-53.517474 333.716211-128.754526 373.652211-166.858105V292.432842l-57.936842 2.694737z" fill="#FFFFFF" p-id="3359"></path><path d="M598.339368 343.04l-7.814736-5.389474-53.571369 35.139369 26.408421 19.186526c43.870316 30.073263 123.688421 85.045895 357.968842 111.023158v-59.284211c-212.614737-24.737684-283.701895-73.620211-322.991158-100.675368z" fill="#FFFFFF" p-id="3360"></path><path d="M536.899368 372.736l54.164211 32.660211 65.212632-100.244211-59.553685-24.629895-59.823158 92.16z" fill="#FFFFFF" p-id="3361"></path></svg>
